HIERARCHY
ROOT Hips
{
  OFFSET 155.048 98.1286 3.93448
  CHANNELS 6 Xposition Yposition Zposition Zrotation Xrotation Yrotation
  JOINT RightUpLeg
  {
    OFFSET -8.9458 -8.66707 0.101652
    CHANNELS 3 Zrotation Xrotation Yrotation
    JOINT RightLeg
    {
      OFFSET 0 -44.4227 1.3727
      CHANNELS 3 Zrotation Xrotation Yrotation
      JOINT RightFoot
      {
        OFFSET 0.253549 -42.0924 -1.46059
        CHANNELS 3 Zrotation Xrotation Yrotation
        JOINT RightToes
        {
          OFFSET 0.04 -4.41509 8.4991
          CHANNELS 3 Zrotation Xrotation Yrotation
          End Site
          {
            OFFSET -0.08 -0.137448 9.77979
          }
        }
      }
    }
  }
  JOINT Spine
  {
    OFFSET 0 11.8905 0
    CHANNELS 3 Zrotation Xrotation Yrotation
    JOINT Spine1
    {
      OFFSET 0 25.6574 0.127663
      CHANNELS 3 Zrotation Xrotation Yrotation
      JOINT Head
      {
        OFFSET 0 8.73416 0.011341
        CHANNELS 3 Zrotation Xrotation Yrotation
        End Site
        {
          OFFSET -0.29 12.7742 2.51395
        }
      }
      JOINT LeftShoulder1
      {
        OFFSET 8.99 -0.362252 -0.22
        CHANNELS 3 Zrotation Xrotation Yrotation
        JOINT LeftArm
        {
          OFFSET 10.2827 -0.00337999 0.322123
          CHANNELS 3 Zrotation Xrotation Yrotation
          JOINT LeftForeArm
          {
            OFFSET 26.2597 0.099144 -1.42434
            CHANNELS 3 Zrotation Xrotation Yrotation
            JOINT LeftHand
            {
              OFFSET 22.0902 0.085362 1.02216
              CHANNELS 3 Zrotation Xrotation Yrotation
              End Site
              {
                OFFSET 13.419 -0.6 1.50291
              }
            }
          }
        }
      }
      JOINT RightShoulder
      {
        OFFSET -8.99 -0.362252 -0.22
        CHANNELS 3 Zrotation Xrotation Yrotation
        JOINT RightArm
        {
          OFFSET -10.2827 -0.00338 0.322123
          CHANNELS 3 Zrotation Xrotation Yrotation
          JOINT RightForeArm
          {
            OFFSET -26.364 0.099144 -1.42434
            CHANNELS 3 Zrotation Xrotation Yrotation
            JOINT RightHand
            {
              OFFSET -22.0324 0.085362 1.02216
              CHANNELS 3 Zrotation Xrotation Yrotation
              End Site
              {
                OFFSET -13.3284 -0.6 1.50291
              }
            }
          }
        }
      }
    }
  }
  JOINT LeftUpLeg
  {
    OFFSET 8.9458 -8.66707 0.101652
    CHANNELS 3 Zrotation Xrotation Yrotation
    JOINT LeftLeg
    {
      OFFSET 0 -44.4227 1.3727
      CHANNELS 3 Zrotation Xrotation Yrotation
      JOINT LeftFoot
      {
        OFFSET -0.253549 -42.0924 -1.46059
        CHANNELS 3 Zrotation Xrotation Yrotation
        JOINT LeftToes
        {
          OFFSET -0.04 -4.41509 8.4991
          CHANNELS 3 Zrotation Xrotation Yrotation
          End Site
          {
            OFFSET 0.08 -0.047448 9.77979
          }
        }
      }
    }
  }
}
MOTION
Frames:	16
Frame Time:	0.0333333
169.27 100.424 3.86724 -3.21116 -0.125397 -94.2621 -2.71013 1.14006 -7.61077 -1.62775 8.99678 -10.3163 5.05452 -5.45368 -0.254727 0.0462048 0.000530889 0.662642 0.995151 -11.2679 0.0964996 0.314436 26.3803 -0.198594 2.51139 -12.6411 -4.61327 -40.3426 9.24404 -16.161 -40.8047 -31.296 -9.75831 -13.6968 16.8596 -8.48509 22.2298 8.9931 0.584456 50.606 13.7019 19.5305 18.2861 -43.9588 -2.61463 7.25437 30.4231 7.81074 -6.74625 9.47755 2.82283 1.62015 0.0985828 6.5561 1.1039 9.14251 20.6549 -4.48016 -3.93719 0.14698 -1.3524e-009 8.75218e-006 -1.47004e-008 
169.274 100.424 3.88197 -3.22652 -0.115937 -94.2741 -2.71994 1.15758 -7.62833 -1.60823 8.98431 -10.2803 5.0206 -5.43878 -0.25472 0.0462048 0.000530889 0.662642 1.10762 -11.1906 0.144654 0.106892 26.2891 -0.0807337 2.59774 -12.6465 -4.72513 -40.2338 9.24226 -16.1997 -40.7575 -31.194 -9.75824 -13.7295 16.8242 -8.46216 22.1305 9.01549 0.682664 50.7351 13.7399 19.5347 18.1875 -43.9155 -2.7593 7.23836 30.3585 7.88967 -6.83199 9.46956 2.86019 1.62423 0.118927 6.57259 1.094 9.13664 20.6569 -4.46354 -3.93578 0.14698 -1.3524e-009 8.75218e-006 -1.47004e-008 
169.286 100.424 3.91045 -3.22958 -0.112783 -94.2724 -2.75131 1.15516 -7.66291 -1.57459 8.97786 -10.243 4.9719 -5.41692 -0.254711 0.0462048 0.000530889 0.662642 1.23432 -11.0806 0.173121 -0.127925 26.1365 0.0257652 2.67364 -12.6243 -4.86968 -40.1262 9.24014 -16.2457 -40.5808 -30.696 -9.64994 -13.7763 16.4067 -8.5853 22.1307 9.04667 0.851584 50.8799 13.7841 19.5432 18.0714 -43.8197 -2.94632 7.20089 30.3304 8.02279 -6.90121 9.45117 3.12399 1.60732 0.118147 6.56688 1.0945 9.12727 20.6725 -4.43652 -3.92749 0.146978 -1.3524e-009 8.75218e-006 -1.47004e-008 
169.299 100.424 3.94096 -3.22193 -0.123427 -94.2439 -2.79233 1.13712 -7.69671 -1.55226 8.9841 -10.2378 4.95372 -5.40474 -0.254706 0.0462048 0.000530889 0.662642 1.28134 -10.9953 0.148337 -0.215268 26.0034 0.0298419 2.66167 -12.5789 -4.91422 -40.0943 9.23746 -16.265 -40.379 -30.0936 -9.4846 -13.8209 15.8681 -8.76244 22.2479 9.06348 0.967852 50.9431 13.8072 19.5535 18.0111 -43.6142 -3.1064 7.17243 30.1367 8.23403 -6.9192 9.43874 3.34001 1.56056 0.0949808 6.51653 1.12201 9.12022 20.7087 -4.41706 -3.91251 0.146976 -1.3524e-009 8.75218e-006 -1.47004e-008 
169.306 100.424 3.9665 -3.21405 -0.13721 -94.2158 -2.82355 1.1266 -7.71647 -1.5494 8.98338 -10.2479 4.98057 -5.40208 -0.254705 0.0462048 0.000530889 0.662642 1.29788 -10.9634 0.120541 -0.236673 25.9379 0.00934487 2.57927 -12.5198 -4.87709 -40.0704 9.22924 -16.2563 -40.3322 -29.9232 -9.43281 -13.8596 15.769 -8.75725 22.3294 9.06034 0.968209 50.9613 13.8159 19.5598 18.009 -43.3884 -3.21431 7.16173 29.731 8.47672 -6.98342 9.43455 3.32771 1.51637 0.0741331 6.46685 1.14584 9.11728 20.7352 -4.40706 -3.90474 0.146974 -1.3524e-009 8.75218e-006 -1.47004e-008 
169.305 100.424 3.98488 -3.19853 -0.145663 -94.2086 -2.83941 1.12132 -7.72268 -1.55364 8.96203 -10.2489 5.01864 -5.39729 -0.254703 0.0462048 0.000530889 0.662642 1.33458 -10.9904 0.129353 -0.283367 25.9342 0.0336027 2.47912 -12.442 -4.85574 -40.0404 9.22544 -16.2616 -40.3938 -30.1635 -9.48443 -13.8819 16.0726 -8.6014 22.331 9.04693 0.897257 50.9762 13.8144 19.5506 18.0632 -43.3325 -3.2278 7.14088 29.4485 8.61823 -7.10142 9.42769 3.28868 1.50592 0.0594839 6.46761 1.12676 9.11132 20.7285 -4.39781 -3.90907 0.146975 -1.3524e-009 8.75218e-006 -1.47004e-008 
169.298 100.424 3.99598 -3.16705 -0.148668 -94.213 -2.84248 1.10497 -7.71774 -1.56298 8.93212 -10.2471 5.03083 -5.38438 -0.254697 0.0462048 0.000530889 0.662642 1.36655 -11.0654 0.157173 -0.312633 25.9698 0.0700417 2.40747 -12.3689 -4.85365 -40.0627 9.25179 -16.3073 -40.3883 -30.3601 -9.49272 -13.8888 16.2817 -8.5039 22.3184 9.03881 0.84642 50.9816 13.8037 19.5303 18.1328 -43.4376 -3.1678 7.09776 29.4734 8.63605 -7.14453 9.42089 3.35604 1.52194 0.037775 6.50518 1.07871 9.09962 20.7031 -4.38383 -3.92024 0.146977 -1.3524e-009 8.75218e-006 -1.47004e-008 
169.289 100.424 4.00173 -3.12866 -0.143987 -94.2182 -2.83027 1.07687 -7.69892 -1.57417 8.91091 -10.2603 5.02414 -5.3667 -0.25469 0.0462048 0.000530889 0.662642 1.37331 -11.1516 0.174507 -0.278295 26.0132 0.0727933 2.37849 -12.3305 -4.78523 -40.1196 9.27522 -16.3314 -40.3581 -30.3843 -9.46879 -13.9045 16.2925 -8.47414 22.3007 9.0433 0.856036 50.9725 13.7961 19.5216 18.1446 -43.5044 -3.12762 7.07086 29.5581 8.62845 -7.05717 9.4266 3.37276 1.54194 0.00373866 6.5339 1.04804 9.09743 20.6886 -4.37003 -3.93447 0.146979 -1.3524e-009 8.75218e-006 -1.47004e-008 
169.284 100.424 4.00724 -3.10854 -0.129149 -94.2162 -2.80788 1.06534 -7.67748 -1.58459 8.89568 -10.2858 5.02255 -5.351 -0.254683 0.0462048 0.000530889 0.662642 1.41 -11.1964 0.188522 -0.28331 26.03 0.0835951 2.38756 -12.3025 -4.67162 -40.099 9.24814 -16.2835 -40.4786 -30.4592 -9.53896 -13.9381 16.3925 -8.38078 22.2302 9.05151 0.891763 50.9872 13.8071 19.5335 18.0859 -43.4874 -3.14487 7.09257 29.493 8.62011 -6.94369 9.43968 3.28549 1.55878 -0.0249649 6.54296 1.04694 9.11977 20.6808 -4.3658 -3.95139 0.146982 -1.3524e-009 8.75218e-006 -1.47004e-008 
169.283 100.424 4.01659 -3.13296 -0.113285 -94.1816 -2.79546 1.10973 -7.67894 -1.58407 8.87535 -10.3187 5.02234 -5.34638 -0.254682 0.0462048 0.000530889 0.662642 1.50715 -11.1614 0.209056 -0.415745 26.0012 0.144594 2.41923 -12.2487 -4.63785 -40.0089 9.21294 -16.2492 -40.6329 -30.5274 -9.60877 -13.9538 16.4906 -8.31481 22.1257 9.05642 0.904346 51.0513 13.8336 19.5487 18.0197 -43.5227 -3.16019 7.14115 29.415 8.54259 -6.90357 9.44426 3.26293 1.57053 -0.0187384 6.5497 1.05179 9.15913 20.6378 -4.36958 -3.97003 0.146986 -1.3524e-009 8.75218e-006 -1.47004e-008 
169.279 100.424 4.0274 -3.19759 -0.108488 -94.0924 -2.80201 1.20774 -7.7074 -1.57836 8.8561 -10.3746 5.02268 -5.35892 -0.254687 0.0462048 0.000530889 0.662642 1.60607 -11.082 0.222564 -0.595506 25.9663 0.218467 2.45896 -12.2079 -4.71576 -39.9583 9.23053 -16.3089 -40.6098 -30.4304 -9.54118 -13.9394 16.377 -8.38187 22.0645 9.05581 0.886903 51.1438 13.8625 19.5553 17.9735 -43.6304 -3.14352 7.17553 29.4477 8.42189 -6.91868 9.44104 3.31398 1.57298 0.0238782 6.55876 1.04914 9.19868 20.5302 -4.3667 -3.99122 0.146989 -1.3524e-009 8.75218e-006 -1.47004e-008 
169.271 100.424 4.03285 -3.25747 -0.112917 -93.976 -2.81375 1.29572 -7.73943 -1.56374 8.85912 -10.4566 5.02261 -5.38404 -0.254697 0.0462048 0.000530889 0.662642 1.64017 -11.0415 0.216958 -0.682447 25.9762 0.245205 2.48514 -12.2172 -4.80646 -39.9107 9.21765 -16.3028 -40.6865 -30.5848 -9.60681 -13.9561 16.5985 -8.26926 22.0786 9.05119 0.864839 51.2183 13.886 19.5609 17.9191 -43.6727 -3.13947 7.1896 29.4714 8.3726 -6.93968 9.44135 3.25785 1.57392 0.062944 6.56698 1.04175 9.23183 20.3908 -4.35397 -4.01562 0.146994 -1.3524e-009 8.75218e-006 -1.47004e-008 
169.26 100.423 4.02999 -3.28291 -0.118655 -93.8825 -2.82377 1.32564 -7.76344 -1.54383 8.89847 -10.527 5.02521 -5.41806 -0.254712 0.0462048 0.000530889 0.662642 1.62749 -11.0585 0.204412 -0.681178 26.0149 0.234641 2.48123 -12.2112 -4.867 -39.7015 9.0355 -16.0085 -41.3712 -31.5644 -10.2063 -14.0583 17.9174 -7.59103 22.1443 9.04348 0.837435 51.2497 13.8992 19.5687 17.8644 -43.6223 -3.17154 7.19511 29.4108 8.4091 -6.95131 9.44813 3.111 1.58112 0.0753322 6.57702 1.03264 9.25505 20.2873 -4.35182 -4.03831 0.146885 -1.3524e-009 8.75218e-006 -1.47004e-008 
169.249 100.418 4.02266 -3.3018 -0.125719 -93.8205 -2.83875 1.32473 -7.78121 -1.52638 8.97826 -10.563 5.04121 -5.47308 -0.254123 0.0462048 0.000530889 0.662642 1.62862 -11.0664 0.200238 -0.706088 26.0311 0.237181 2.45039 -12.1401 -4.93623 -39.373 8.75472 -15.5528 -42.4733 -32.9551 -11.1093 -14.2031 19.7989 -6.64514 22.2356 9.02888 0.778633 51.2524 13.9009 19.5704 17.8498 -43.6119 -3.20329 7.18616 29.3859 8.43681 -6.92129 9.45304 3.05835 1.58012 0.0859301 6.58023 1.03567 9.27486 20.2398 -4.37545 -4.06 0.146545 -1.3524e-009 8.75218e-006 -1.47004e-008 
169.24 100.407 4.01404 -3.33092 -0.130931 -93.7733 -2.84283 1.31239 -7.76813 -1.53274 9.09911 -10.6054 5.06888 -5.55612 -0.251667 0.0462048 0.000530889 0.662642 1.66623 -11.0382 0.208257 -0.797828 26.0189 0.268588 2.39907 -12.0877 -4.9779 -39.1994 8.61948 -15.3368 -43.049 -33.6345 -11.5311 -14.2623 20.7186 -6.20222 22.3256 9.0118 0.706773 51.2592 13.9011 19.5677 17.8557 -43.7016 -3.21536 7.15597 29.4618 8.41985 -6.80792 9.45963 3.09209 1.5673 0.0872178 6.56581 1.06635 9.33284 20.2045 -4.41613 -4.09698 0.146353 -1.3524e-009 8.75218e-006 -1.47004e-008 
169.238 100.394 3.9997 -3.31495 -0.123322 -93.7553 -2.80664 1.23444 -7.69749 -1.57305 9.23468 -10.6897 5.0819 -5.63998 -0.249196 0.0462048 0.000530889 0.662642 1.71514 -11.0333 0.231638 -0.887056 25.9859 0.310367 2.32211 -12.1002 -4.90709 -39.2754 8.6966 -15.4699 -42.745 -33.3245 -11.2273 -14.22 20.2853 -6.43179 22.3747 9.00646 0.689101 51.282 13.9098 19.5718 17.8318 -43.7908 -3.24063 7.11938 29.5421 8.41437 -6.66478 9.47041 3.08307 1.57889 0.0104845 6.5572 1.09998 9.45317 20.1596 -4.46267 -4.1505 0.146275 -1.3524e-009 8.75218e-006 -1.47004e-008 
